<?xml version="1.0" encoding="utf-8"?>
<!-- Generator: Adobe Illustrator 23.0.1, SVG Export Plug-In . SVG Version: 6.00 Build 0)  -->
<svg version="1.1" id="Layer_1" xmlns="http://www.w3.org/2000/svg" xmlns:xlink="http://www.w3.org/1999/xlink" x="0px" y="0px"
	 viewBox="0 0 11.3 14.9" style="enable-background:new 0 0 11.3 14.9;" xml:space="preserve">
<style type="text/css">
	.st0{fill:#828282;}
</style>
<g>
	<path class="st0" d="M5.7,0c3.4,0,6,3.1,5.6,6.5c-0.3,2.8-4,8.3-5.6,8.3C4.3,14.9,0.3,9,0,6.5C-0.4,3.1,2.3,0,5.7,0z M9.9,5
		c0-1.6-1.5-3.3-4-3.4c-2.4,0-4.3,1.1-4.4,4c0,1.8,2.9,7.1,4,7.3C6.8,13.1,9.8,8.4,9.9,5z"/>
	<path class="st0" d="M7.2,4.7c-1-0.1-2-0.2-3.5-0.4c1.7-1.7,2.8-0.8,3.9,0.1C7.5,4.5,7.4,4.6,7.2,4.7z"/>
	<path class="st0" d="M7.7,4.4c0.8,1,1,1.9,0,3c-0.9-0.8,0-1.9-0.4-2.7C7.4,4.6,7.5,4.5,7.7,4.4z"/>
	<path class="st0" d="M3.8,7.8c-0.4-1-0.6-1.6,0.1-2.2C4.3,6.3,4.3,6.9,3.8,7.8z"/>
</g>
</svg>
